<svg width="77" height="26" viewBox="0 0 77 26" fill="none" xmlns="http://www.w3.org/2000/svg">
<path d="M6.41201 10.752L13.636 9.94V17.64L24.192 16.492V21.588L5.28991e-06 24.248V19.152L6.41201 18.452V10.752ZM1.34401 7.308V1.316L8.59601 0.391999V1.316L15.624 0.391999V1.344L22.848 0.391999V13.132L16.184 13.944V5.684L1.34401 7.308ZM26.9975 23.996V9.744L30.9455 9.324V5.88L26.5215 6.356V1.316L31.5895 0.391999V1.316L36.5735 0.391999V1.344L41.4455 0.391999V4.76L37.2175 5.208V8.624L41.1655 8.176V22.428L35.1455 23.1V9.968L33.1295 10.192V23.268L26.9975 23.996ZM49.7615 0.335998V23.268L43.4615 23.968V1.344L49.7615 0.335998ZM76.3669 -7.15256e-07V12.18L70.0669 12.88V1.148L76.3669 -7.15256e-07ZM63.8229 0.363998V4.144L68.0509 3.668V12.908L61.7509 13.608V5.208L60.0149 5.404V13.776L53.6029 14.504V5.32L57.5509 4.872V1.204L63.8229 0.363998ZM70.0389 19.796L54.4429 21.504V15.876L76.3949 13.468V24.332L70.0389 25.06V19.796Z" fill="#191919"/>
</svg>
